<svg width="241" height="82" viewBox="0 0 241 82" fill="none" xmlns="http://www.w3.org/2000/svg">
<path d="M102.534 66H49.3468C50.1615 61.3834 51.8302 56.9838 54.2566 53.0551C56.683 49.1265 59.819 45.7466 63.4836 43.1107C67.1482 40.4748 71.2687 38.6351 75.6073 37.6979C79.9458 36.7606 84.4164 36.7444 88.7609 37.65C89.4397 38.28 90.0995 38.92 90.7406 39.65C97.4457 46.7075 101.617 56.0274 102.534 66ZM103.533 16.0001H32.8308C31.279 15.9948 29.7414 16.3145 28.3062 16.9408C26.8711 17.5672 25.5665 18.4878 24.4675 19.65C23.3684 20.8122 22.4963 22.193 21.9013 23.7134C21.3063 25.2338 21 26.8638 21 28.51V53.51C20.997 55.4434 21.4199 57.3507 22.2349 59.08C24.0806 51.7024 27.7443 44.9789 32.8497 39.6C40.2013 31.8244 50.0585 27.2945 60.4341 26.9233C70.8097 26.5522 80.9322 30.3675 88.7609 37.6C94.3578 38.7577 99.5839 41.4103 103.945 45.3071C108.307 49.2038 111.659 54.2161 113.686 59.87C114.757 57.9472 115.321 55.7537 115.317 53.52V28.52C115.319 26.8768 115.016 25.2492 114.425 23.7304C113.834 22.2115 112.966 20.8311 111.872 19.6683C110.777 18.5054 109.478 17.5829 108.047 16.9535C106.616 16.324 105.082 16.0001 103.533 16.0001ZM134.868 35.43C134.393 36.3208 133.698 37.057 132.857 37.5593C132.016 38.0615 131.062 38.3107 130.098 38.28C129.367 38.3041 128.64 38.1602 127.966 37.8581C127.293 37.556 126.688 37.103 126.195 36.53C125.15 35.2266 124.614 33.5489 124.696 31.84C124.618 30.1378 125.154 28.4678 126.195 27.17C126.665 26.6017 127.245 26.1488 127.896 25.8431C128.548 25.5374 129.254 25.3862 129.966 25.4001C130.678 25.3746 131.386 25.5186 132.039 25.8214C132.691 26.1243 133.271 26.5782 133.737 27.15C134.763 28.4628 135.288 30.1365 135.207 31.84V32.62H127.195C127.251 34.62 128.298 35.96 130.023 35.96C130.754 35.9971 131.47 35.7318 132.021 35.22C132.431 34.8379 132.781 34.389 133.058 33.89L134.868 35.43ZM132.804 30.64C132.818 30.2457 132.753 29.8527 132.615 29.4864C132.477 29.1201 132.268 28.7886 132.001 28.5134C131.735 28.2382 131.417 28.0253 131.068 27.8887C130.719 27.752 130.347 27.6946 129.976 27.72C129.244 27.72 128.542 28.027 128.022 28.5741C127.503 29.1211 127.209 29.8638 127.204 30.64H132.804ZM136.622 37.93V21.1501H139.176V37.93H136.622ZM142.127 27.13C142.607 26.5786 143.19 26.1398 143.84 25.8419C144.489 25.544 145.19 25.3934 145.898 25.4001C146.606 25.3858 147.309 25.5329 147.96 25.8313C148.61 26.1297 149.193 26.5726 149.668 27.13C150.742 28.4261 151.294 30.1172 151.205 31.84C151.303 33.5663 150.765 35.2654 149.706 36.58C149.228 37.1326 148.645 37.5702 147.994 37.8634C147.344 38.1566 146.642 38.2987 145.935 38.28C145.219 38.2978 144.508 38.1556 143.847 37.8628C143.186 37.5699 142.59 37.1329 142.099 36.58C141.039 35.2654 140.502 33.5663 140.6 31.84C140.508 30.1186 141.057 28.4277 142.127 27.13ZM148.782 31.84C148.782 29.27 147.632 27.77 145.954 27.77C144.276 27.77 143.07 29.24 143.07 31.84C143.07 34.44 144.22 35.91 145.954 35.91C147.689 35.91 148.782 34.42 148.782 31.84ZM154.618 39.04C154.803 39.674 155.181 40.2251 155.692 40.6069C156.204 40.9887 156.821 41.1797 157.446 41.15C157.797 41.1886 158.152 41.1429 158.485 41.0162C158.817 40.8895 159.119 40.6851 159.367 40.4182C159.615 40.1513 159.803 39.8286 159.918 39.4741C160.032 39.1196 160.07 38.7422 160.029 38.37V36.81H159.982C159.631 37.2867 159.18 37.6686 158.664 37.9241C158.147 38.1796 157.581 38.3016 157.012 38.28C156.313 38.2975 155.618 38.1515 154.978 37.8526C154.338 37.5536 153.767 37.1089 153.307 36.55C152.28 35.2311 151.761 33.5482 151.855 31.84C151.775 30.1314 152.311 28.4545 153.354 27.15C153.801 26.5961 154.356 26.1524 154.982 25.8501C155.607 25.5478 156.287 25.3942 156.974 25.4001C157.568 25.3664 158.159 25.4874 158.698 25.7523C159.237 26.0173 159.707 26.4182 160.066 26.92H160.113V25.7501H162.499V38C162.543 38.7416 162.441 39.4849 162.199 40.1822C161.957 40.8796 161.581 41.5158 161.094 42.05C160.101 43.0111 158.789 43.5147 157.446 43.45C156.453 43.5084 155.467 43.2401 154.623 42.6816C153.78 42.1231 153.119 41.3018 152.732 40.33L154.618 39.04ZM160.038 30.41C160.036 30.0494 159.965 29.693 159.829 29.3625C159.693 29.0319 159.495 28.7341 159.248 28.4872C159 28.2403 158.707 28.0493 158.388 27.9261C158.068 27.8028 157.729 27.7497 157.389 27.77C155.504 27.77 154.335 29.24 154.335 31.84C154.335 34.44 155.504 35.91 157.389 35.91C157.722 35.9344 158.057 35.8871 158.373 35.7709C158.688 35.6547 158.978 35.4721 159.226 35.2339C159.473 34.9957 159.673 34.7069 159.812 34.3849C159.952 34.0629 160.029 33.7143 160.038 33.36V30.41ZM164.572 23.7501V21.1501H167.118V23.7501H164.572ZM164.572 37.93V25.7501H167.118V37.93H164.572ZM178.713 33.63C178.26 36.58 176.573 38.28 173.858 38.28C173.142 38.3003 172.429 38.1593 171.768 37.8663C171.106 37.5733 170.511 37.1349 170.021 36.58C168.969 35.2618 168.436 33.5644 168.532 31.84C168.454 30.1397 168.987 28.4713 170.021 27.17C170.494 26.6063 171.075 26.1567 171.726 25.8514C172.376 25.546 173.081 25.3921 173.792 25.4001C174.974 25.3632 176.124 25.8115 177.002 26.6517C177.88 27.4919 178.419 28.659 178.505 29.91L176.186 30.32C175.941 28.62 175.14 27.77 173.773 27.77C172.02 27.77 170.945 29.27 170.945 31.84C170.945 34.41 172.001 35.91 173.773 35.91C175.121 35.91 175.922 34.97 176.186 33.08L178.713 33.63ZM134.878 55.63C134.425 58.58 132.728 60.28 130.023 60.28C129.306 60.3016 128.593 60.1612 127.932 59.8681C127.27 59.575 126.675 59.1359 126.186 58.58C125.13 57.2639 124.596 55.5649 124.696 53.84C124.618 52.1378 125.154 50.4678 126.195 49.17C126.667 48.6053 127.248 48.1549 127.899 47.8495C128.55 47.5441 129.255 47.3908 129.966 47.4C131.149 47.3607 132.3 47.8081 133.178 48.6488C134.057 49.4895 134.595 50.6581 134.68 51.91L132.361 52.32C132.128 50.62 131.327 49.77 129.957 49.77C128.194 49.77 127.072 51.27 127.072 53.84C127.072 56.41 128.137 57.91 129.957 57.91C131.295 57.91 132.097 56.97 132.361 55.08L134.878 55.63ZM136.961 49.13C137.44 48.5776 138.023 48.1382 138.673 47.8401C139.323 47.5421 140.024 47.3922 140.732 47.4C141.441 47.3838 142.144 47.53 142.795 47.8285C143.446 48.1271 144.028 48.571 144.502 49.13C145.576 50.4261 146.128 52.1172 146.039 53.84C146.135 55.5644 145.602 57.2618 144.55 58.58C144.07 59.1305 143.486 59.5667 142.836 59.8598C142.186 60.1528 141.485 60.2961 140.779 60.28C140.063 60.2965 139.352 60.1538 138.691 59.861C138.03 59.5682 137.434 59.1318 136.942 58.58C135.885 57.2644 135.351 55.565 135.453 53.84C135.353 52.1227 135.891 50.4323 136.951 49.13H136.961ZM143.616 53.84C143.616 51.27 142.466 49.77 140.788 49.77C139.11 49.77 137.894 51.24 137.894 53.84C137.894 56.44 139.044 57.91 140.779 57.91C142.513 57.91 143.626 56.42 143.626 53.84H143.616ZM147.453 59.93V47.75H149.706V48.92H149.753C150.091 48.4357 150.534 48.0449 151.045 47.7807C151.556 47.5166 152.119 47.3869 152.687 47.4026C153.254 47.4183 153.81 47.5789 154.307 47.8709C154.804 48.1629 155.228 48.5777 155.541 49.08C155.892 48.5575 156.356 48.1322 156.894 47.8398C157.432 47.5474 158.029 47.3966 158.633 47.4C161.254 47.4 162.923 49.06 162.923 51.61V59.93H160.651V52.21C160.651 50.62 159.934 49.82 158.52 49.82C158.235 49.7878 157.947 49.823 157.676 49.9231C157.405 50.0232 157.159 50.1857 156.954 50.3989C156.749 50.6121 156.592 50.8708 156.493 51.1562C156.393 51.4417 156.355 51.747 156.38 52.05V59.93H154.08V52.21C154.121 51.9049 154.097 51.5942 154.012 51.2998C153.926 51.0054 153.781 50.7345 153.585 50.5064C153.39 50.2784 153.15 50.0986 152.882 49.98C152.614 49.8614 152.325 49.8068 152.035 49.82C151.749 49.7899 151.461 49.8264 151.191 49.9271C150.92 50.0278 150.674 50.1902 150.469 50.4028C150.264 50.6154 150.106 50.8731 150.005 51.1577C149.904 51.4423 149.863 51.7469 149.885 52.05V59.93H147.453ZM165.016 59.93V47.75H167.269V48.92H167.316C167.654 48.4357 168.097 48.0449 168.607 47.7807C169.118 47.5166 169.681 47.3869 170.249 47.4026C170.817 47.4183 171.373 47.5789 171.87 47.8709C172.367 48.1629 172.79 48.5777 173.104 49.08C173.454 48.5589 173.916 48.1344 174.452 47.8421C174.989 47.5498 175.583 47.3982 176.186 47.4C178.807 47.4 180.476 49.06 180.476 51.61V59.93H178.204V52.21C178.204 50.62 177.487 49.82 176.073 49.82C175.788 49.7878 175.5 49.823 175.229 49.9231C174.958 50.0232 174.711 50.1857 174.507 50.3989C174.302 50.6121 174.145 50.8708 174.046 51.1562C173.946 51.4417 173.908 51.747 173.933 52.05V59.93H171.633V52.21C171.675 51.8997 171.65 51.5834 171.562 51.2843C171.473 50.9853 171.322 50.7112 171.121 50.482C170.919 50.2528 170.672 50.0743 170.397 49.9598C170.122 49.8453 169.826 49.7975 169.531 49.82C169.246 49.7899 168.958 49.8264 168.687 49.9271C168.417 50.0278 168.171 50.1902 167.966 50.4028C167.761 50.6154 167.602 50.8731 167.501 51.1577C167.4 51.4423 167.36 51.7469 167.382 52.05V59.93H165.016ZM191.986 57.43C191.512 58.3215 190.816 59.0583 189.976 59.5607C189.135 60.0631 188.181 60.3118 187.216 60.28C186.485 60.3041 185.758 60.1601 185.084 59.8581C184.41 59.556 183.806 59.103 183.313 58.53C182.268 57.2266 181.732 55.5489 181.814 53.84C181.736 52.1378 182.272 50.4678 183.313 49.17C183.782 48.6016 184.363 48.1488 185.014 47.843C185.666 47.5373 186.372 47.3861 187.084 47.4C187.796 47.3702 188.506 47.5122 189.159 47.8154C189.812 48.1185 190.392 48.5748 190.855 49.15C191.884 50.4618 192.412 52.1353 192.335 53.84V54.62H184.312C184.378 56.62 185.415 57.96 187.141 57.96C187.872 57.9971 188.588 57.7318 189.139 57.22C189.552 56.8407 189.902 56.3912 190.176 55.89L191.986 57.43ZM189.922 52.64C189.935 52.2457 189.871 51.8527 189.733 51.4864C189.595 51.12 189.386 50.7885 189.119 50.5133C188.853 50.2381 188.535 50.0253 188.186 49.8887C187.837 49.752 187.465 49.6946 187.093 49.72C186.366 49.7352 185.672 50.0471 185.156 50.5909C184.64 51.1347 184.341 51.8686 184.322 52.64H189.922ZM193.739 59.93V47.75H196.087V49C196.323 48.5473 196.668 48.1691 197.087 47.9039C197.506 47.6386 197.984 47.4959 198.472 47.49C198.823 47.4903 199.169 47.5687 199.49 47.72L199.169 50.3C198.863 50.1991 198.547 50.1386 198.227 50.12C196.888 50.12 196.219 51.12 196.219 53.12V59.9L193.739 59.93ZM209.935 55.63C209.482 58.58 207.795 60.28 205.08 60.28C204.364 60.3003 203.651 60.1593 202.99 59.8663C202.329 59.5732 201.733 59.1349 201.243 58.58C200.187 57.2644 199.653 55.565 199.754 53.84C199.672 52.139 200.204 50.4688 201.243 49.17C201.716 48.6063 202.297 48.1567 202.948 47.8513C203.598 47.546 204.303 47.3921 205.014 47.4C206.197 47.3581 207.35 47.8048 208.229 48.6459C209.108 49.4871 209.645 50.6572 209.728 51.91L207.408 52.32C207.176 50.62 206.375 49.77 205.005 49.77C203.251 49.77 202.12 51.27 202.12 53.84C202.12 56.41 203.185 57.91 205.005 57.91C206.353 57.91 207.154 56.97 207.408 55.08L209.935 55.63ZM220.644 57.43C220.176 58.3138 219.49 59.0459 218.66 59.5479C217.829 60.0499 216.886 60.303 215.93 60.28C215.199 60.3041 214.472 60.1601 213.799 59.8581C213.125 59.556 212.521 59.103 212.028 58.53C210.966 57.2341 210.412 55.5556 210.482 53.84C210.403 52.1378 210.939 50.4678 211.981 49.17C212.45 48.6016 213.03 48.1488 213.682 47.843C214.333 47.5373 215.039 47.3861 215.751 47.4C216.463 47.3746 217.171 47.5186 217.824 47.8214C218.476 48.1242 219.057 48.5782 219.522 49.15C220.545 50.4652 221.069 52.1372 220.993 53.84V54.62H212.98C213.036 56.62 214.083 57.96 215.808 57.96C216.539 57.9971 217.256 57.7318 217.806 57.22C218.216 56.8379 218.567 56.389 218.843 55.89L220.644 57.43ZM218.589 52.64C218.603 52.2457 218.539 51.8527 218.4 51.4864C218.262 51.12 218.053 50.7885 217.787 50.5133C217.52 50.2381 217.202 50.0253 216.853 49.8887C216.504 49.752 216.132 49.6946 215.761 49.72C215.029 49.72 214.327 50.027 213.808 50.574C213.288 51.1211 212.994 51.8638 212.989 52.64H218.589Z" fill="white"/>
</svg>
