<svg width="18" height="21" viewBox="0 0 18 21" class="w-[24px]" fill="none" xmlns="http://www.w3.org/2000/svg">
<g clip-path="url(#clip0_10173_12100)">
<path d="M5.15634 3.98982C5.19442 2.99666 5.61637 2.05703 6.33337 1.36876C7.05037 0.680482 8.00646 0.297275 9.00034 0.299817C9.99422 0.297275 10.9503 0.680482 11.6673 1.36876C12.3843 2.05703 12.8063 2.99666 12.8443 3.98982H17.3343L17.7233 18.6938C17.7293 18.9236 17.69 19.1522 17.6076 19.3668C17.5252 19.5814 17.4014 19.7776 17.2431 19.9443C17.0849 20.1109 16.8954 20.2448 16.6854 20.3383C16.4754 20.4317 16.2491 20.4829 16.0193 20.4888H2.02734C1.56321 20.4888 1.1181 20.3044 0.789907 19.9763C0.461718 19.6481 0.277344 19.2029 0.277344 18.7388L0.278344 18.6928L0.674344 3.98982H5.15634ZM6.65834 3.98982H11.3423C11.3049 3.39497 11.0415 2.83692 10.6062 2.42982C10.1708 2.02273 9.59637 1.79736 9.00034 1.79982C8.40432 1.79736 7.82988 2.02273 7.39453 2.42982C6.95918 2.83692 6.69583 3.39497 6.65834 3.98982ZM5.15234 5.48982H2.13534L1.77734 18.7328V18.7398C1.77734 18.8778 1.88934 18.9898 2.02734 18.9898H15.9733C16.0067 18.9897 16.0398 18.9829 16.0705 18.9699C16.1012 18.9568 16.1291 18.9378 16.1523 18.9138C16.1756 18.8899 16.1939 18.8616 16.2061 18.8305C16.2183 18.7994 16.2241 18.7662 16.2233 18.7328L15.8743 5.48982H12.8483V8.31282H11.3483V5.48982H6.65234V8.31282H5.15234V5.48982Z" fill="currentColor"/>
</g>
<defs>
<clipPath id="clip0_10173_12100">
<rect width="18" height="21" fill="currentColor"/>
</clipPath>
</defs>
</svg>
