<svg width="24" height="24" viewBox="0 0 24 24" fill="none" xmlns="http://www.w3.org/2000/svg">
<path d="M17.4795 2.25C18.8328 2.25005 20.1381 2.76979 21.1846 3.73926L21.3906 3.93945C22.5015 5.07046 23.1738 6.65348 23.2441 8.3252L23.25 8.66016C23.2416 10.0057 22.7428 11.4999 21.6914 13.1133L21.4736 13.4385C20.6617 14.6137 19.5652 15.8431 18.2002 17.0986L17.5996 17.6387C14.9318 19.9749 12.3037 21.559 11.999 21.7402C11.7074 21.5679 9.37989 20.1728 6.89355 18.0859L6.37012 17.6377C4.92344 16.3754 3.74706 15.1351 2.85645 13.9453L2.49219 13.4385L2.27539 13.1133C1.29817 11.6068 0.80888 10.2054 0.754883 8.93164L0.75 8.66113C0.760143 7.04147 1.29814 5.52655 2.25586 4.35352L2.45312 4.12305C3.54978 2.90414 4.99329 2.25008 6.52051 2.25C8.47214 2.25 10.2914 3.35678 11.3525 5.16699C11.4871 5.39664 11.7338 5.53807 12 5.53809C12.2662 5.53809 12.5129 5.39664 12.6475 5.16699C13.7086 3.3568 15.5279 2.25 17.4795 2.25Z" stroke="white" stroke-width="1.5" stroke-linejoin="round"/>
</svg>
